<?xml version="1.0" encoding="utf-8"?>
<!-- Generator: Adobe Illustrator 21.0.0, SVG Export Plug-In . SVG Version: 6.00 Build 0)  -->
<svg version="1.1" id="Layer_1" xmlns="http://www.w3.org/2000/svg" xmlns:xlink="http://www.w3.org/1999/xlink" x="0px" y="0px"
	 viewBox="0 0 95.756 141.732" enable-background="new 0 0 95.756 141.732" xml:space="preserve">
<g>
	<g>
		<g>
			<g>
				<path fill="#57B957" d="M39.515,105.745l-16.872,6.75c-1.304,0.522-2.798-0.118-3.319-1.422L0.182,63.224
					C-0.34,61.92,0.3,60.427,1.604,59.905l16.872-6.75c1.304-0.522,2.798,0.118,3.319,1.422l19.142,47.848
					C41.458,103.729,40.818,105.223,39.515,105.745z"/>
				<path fill="#57B957" d="M91.37,74.592L50.199,91.07c-3.147,1.23-6.787-0.295-8.017-3.444L28.754,54.13
					c-0.836-2.115-0.935-4.476-0.295-6.64l6.64-22.43c0,0,0.197-0.59,0.443-1.623c0.836-2.951,2.115-9.69-0.246-15.494
					c-3.05-7.674,8.853-13.871,15.1,1.722c0,0,2.656,9.099,0.689,13.231c-0.787,1.771-2.705,9.149,4.23,6.395l22.823-9.1
					c3.591-1.476,7.722,0.295,9.149,3.886c1.476,3.64-0.295,7.674-3.886,9.198c3.296-0.344,6.641,1.771,7.477,5.312
					s-1.475,7.083-4.82,8.46c2.952-0.246,5.902,1.476,7.083,4.378c1.427,3.64-0.343,7.722-3.935,9.197l-1.082,0.443
					c0.295-0.049,0.639-0.098,1.033-0.049c2.607,0.197,5.066,1.82,6.1,4.378C96.682,68.985,94.96,73.165,91.37,74.592z"/>
			</g>
		</g>
	</g>
	<g>
		<path fill="#57B957" d="M0,141.439l5.736-13.96h1.989l5.818,13.96h-3.034l-1.13-2.805H3.997l-1.152,2.805H0z M4.856,136.269h3.6
			l-1.8-4.583L4.856,136.269z"/>
		<path fill="#57B957" d="M15.173,141.439v-13.96h2.825v11.428h7.034v2.532H15.173z"/>
		<path fill="#57B957" d="M26.749,141.439v-13.96h2.825v11.428h7.034v2.532H26.749z"/>
		<path fill="#57B957" d="M42.509,141.439v-13.96h4.144c0.53,0,1.117,0.042,1.758,0.125c0.642,0.084,1.256,0.251,1.842,0.503
			c0.6,0.279,1.127,0.639,1.581,1.079c0.454,0.439,0.826,0.935,1.12,1.486c0.293,0.55,0.514,1.144,0.659,1.778
			c0.147,0.634,0.22,1.28,0.22,1.937c0,0.655-0.074,1.301-0.22,1.936c-0.146,0.634-0.369,1.235-0.67,1.8
			c-0.299,0.565-0.677,1.071-1.13,1.518c-0.454,0.446-0.98,0.809-1.58,1.088c-1.019,0.475-2.176,0.712-3.474,0.712h-4.249V141.439z
			 M45.335,138.927h1.131c1.019,0,1.862-0.174,2.532-0.523s1.165-0.882,1.486-1.602c0.321-0.717,0.481-1.483,0.481-2.292
			c0-0.796-0.147-1.545-0.439-2.25c-0.293-0.705-0.747-1.253-1.361-1.644c-0.321-0.209-0.719-0.367-1.193-0.472
			c-0.475-0.105-0.956-0.156-1.444-0.156h-1.194v8.938H45.335z"/>
		<path fill="#57B957" d="M59.275,141.104c-0.811-0.432-1.48-0.989-2.01-1.674c-0.53-0.685-0.928-1.462-1.193-2.334
			c-0.265-0.872-0.398-1.754-0.398-2.648s0.133-1.776,0.398-2.648c0.265-0.873,0.663-1.651,1.193-2.334
			c0.53-0.684,1.2-1.235,2.01-1.654c0.808-0.418,1.751-0.628,2.825-0.628c1.088,0,2.036,0.209,2.846,0.628
			c0.809,0.42,1.486,0.97,2.031,1.654c0.543,0.683,0.948,1.461,1.213,2.334c0.266,0.872,0.398,1.754,0.398,2.648
			s-0.132,1.776-0.398,2.648c-0.265,0.872-0.67,1.65-1.213,2.334c-0.545,0.684-1.221,1.238-2.031,1.664
			c-0.809,0.425-1.758,0.639-2.846,0.639C61.026,141.732,60.083,141.523,59.275,141.104z M59.442,137.777
			c0.307,0.446,0.681,0.802,1.12,1.066c0.44,0.266,0.953,0.398,1.539,0.398s1.105-0.132,1.56-0.398
			c0.454-0.265,0.833-0.621,1.14-1.066c0.307-0.447,0.538-0.96,0.691-1.539c0.152-0.579,0.23-1.174,0.23-1.789
			s-0.077-1.211-0.23-1.791c-0.154-0.579-0.384-1.091-0.691-1.538c-0.307-0.446-0.687-0.802-1.14-1.068
			c-0.455-0.265-0.974-0.398-1.56-0.398c-0.587,0-1.099,0.133-1.539,0.398c-0.439,0.266-0.813,0.622-1.12,1.068
			c-0.308,0.446-0.538,0.96-0.691,1.538c-0.154,0.58-0.23,1.176-0.23,1.791s0.076,1.211,0.23,1.789
			C58.904,136.817,59.134,137.329,59.442,137.777z"/>
		<path fill="#57B957" d="M71.142,141.439v-13.96h2.889l5.651,8.708v-8.708h2.783v13.96h-2.469l-6.069-9.231v9.231H71.142z"/>
		<path fill="#57B957" d="M85.688,141.439v-13.96h9.587v2.532h-6.761v3.181h5.588v2.533h-5.588v3.181h7.243v2.532L85.688,141.439
			L85.688,141.439z"/>
	</g>
</g>
</svg>
