<?xml version="1.0" encoding="utf-8"?>
<!-- Generator: Adobe Illustrator 21.0.0, SVG Export Plug-In . SVG Version: 6.00 Build 0)  -->
<svg version="1.1" id="Layer_1" xmlns="http://www.w3.org/2000/svg" xmlns:xlink="http://www.w3.org/1999/xlink" x="0px" y="0px"
     viewBox="0 0 102.908 141.732" enable-background="new 0 0 102.908 141.732"
	 xml:space="preserve">
<symbol  id="Red_X" viewBox="-14 -14 28 28">
	<g>
		<g>
			<polygon fill="#E6504D" points="14,-8.095 8.108,-13.973 0.013,-5.892 -8.095,-14 -13.986,-8.108 -5.905,0 -14,8.068
				-8.068,13.973 0,5.905 8.067,14 13.973,8.068 5.905,0 			"/>
		</g>
	</g>
</symbol>
<g>

		<use xlink:href="#Red_X"  width="28" height="28" x="-14" y="-14" transform="matrix(3.6753 0 0 -3.6753 51.4541 51.4543)" overflow="visible"/>
	<g>
		<path fill="#E6504D" d="M0,141.26v-22.527h15.469v4.086H4.559v5.134h9.018v4.087H4.559v5.134h11.685v4.086H0z"/>
		<path fill="#E6504D" d="M19.792,141.26v-22.527h9.153c0.945,0,1.892,0.101,2.837,0.304c0.947,0.203,1.795,0.557,2.551,1.064
			c0.754,0.507,1.371,1.187,1.856,2.044c0.483,0.855,0.726,1.947,0.726,3.276c0,0.81-0.101,1.587-0.304,2.33
			c-0.203,0.743-0.511,1.424-0.928,2.044c-0.417,0.62-0.956,1.165-1.621,1.637c-0.664,0.474-1.458,0.845-2.382,1.116l5.777,8.713
			h-5.169l-5.572-8.444h-2.467v8.444H19.792z M24.249,128.933h3.48c1.642,0,2.837-0.259,3.579-0.777
			c0.744-0.517,1.117-1.283,1.117-2.296c0-1.081-0.351-1.886-1.048-2.415s-1.913-0.794-3.647-0.794h-3.48V128.933z"/>
		<path fill="#E6504D" d="M40.833,141.26v-22.527h9.153c0.945,0,1.892,0.101,2.837,0.304c0.947,0.203,1.795,0.557,2.551,1.064
			c0.754,0.507,1.371,1.187,1.856,2.044c0.483,0.855,0.726,1.947,0.726,3.276c0,0.81-0.101,1.587-0.304,2.33
			c-0.203,0.743-0.511,1.424-0.928,2.044c-0.417,0.62-0.956,1.165-1.621,1.637c-0.664,0.474-1.458,0.845-2.382,1.116l5.777,8.713
			h-5.169l-5.572-8.444H45.29v8.444H40.833z M45.29,128.933h3.48c1.642,0,2.837-0.259,3.579-0.777
			c0.744-0.517,1.117-1.283,1.117-2.296c0-1.081-0.351-1.886-1.048-2.415c-0.697-0.529-1.913-0.794-3.647-0.794h-3.48V128.933z"/>
		<path fill="#E6504D" d="M66.095,140.719c-1.305-0.697-2.387-1.598-3.242-2.702c-0.858-1.103-1.498-2.358-1.925-3.765
			c-0.429-1.408-0.643-2.832-0.643-4.272c0-1.441,0.214-2.866,0.643-4.272c0.426-1.408,1.067-2.663,1.925-3.766
			c0.855-1.104,1.937-1.993,3.242-2.668c1.305-0.676,2.825-1.014,4.559-1.014c1.758,0,3.289,0.338,4.594,1.014
			c1.305,0.675,2.398,1.564,3.277,2.668c0.876,1.103,1.529,2.358,1.958,3.766c0.426,1.406,0.641,2.832,0.641,4.272
			c0,1.441-0.214,2.865-0.641,4.272c-0.429,1.406-1.081,2.662-1.958,3.765c-0.879,1.104-1.972,1.999-3.277,2.686
			c-1.305,0.687-2.837,1.03-4.594,1.03C68.92,141.732,67.4,141.395,66.095,140.719z M66.366,135.349
			c0.495,0.721,1.098,1.296,1.807,1.723c0.709,0.428,1.536,0.641,2.481,0.641c0.947,0,1.786-0.213,2.516-0.641
			c0.733-0.428,1.345-1.002,1.842-1.723c0.495-0.72,0.865-1.548,1.114-2.482c0.247-0.934,0.37-1.896,0.37-2.887
			s-0.123-1.953-0.37-2.888c-0.25-0.934-0.62-1.761-1.114-2.482c-0.497-0.721-1.11-1.295-1.842-1.723
			c-0.73-0.426-1.569-0.641-2.516-0.641c-0.945,0-1.772,0.214-2.481,0.641c-0.709,0.429-1.312,1.002-1.807,1.723
			c-0.497,0.721-0.867,1.548-1.114,2.482c-0.25,0.935-0.372,1.898-0.372,2.888s0.123,1.953,0.372,2.887
			C65.499,133.801,65.869,134.629,66.366,135.349z"/>
		<path fill="#E6504D" d="M85.244,141.26v-22.527h9.153c0.945,0,1.892,0.101,2.837,0.304c0.947,0.203,1.795,0.557,2.551,1.064
			c0.754,0.507,1.371,1.187,1.856,2.044c0.483,0.855,0.726,1.947,0.726,3.276c0,0.81-0.101,1.587-0.304,2.33
			c-0.203,0.743-0.511,1.424-0.928,2.044c-0.417,0.62-0.956,1.165-1.621,1.637c-0.664,0.474-1.458,0.845-2.382,1.116l5.777,8.713
			h-5.169l-5.572-8.444h-2.467v8.444H85.244z M89.701,128.933h3.48c1.642,0,2.837-0.259,3.579-0.777
			c0.744-0.517,1.117-1.283,1.117-2.296c0-1.081-0.351-1.886-1.048-2.415c-0.697-0.529-1.913-0.794-3.647-0.794h-3.48V128.933z"/>
	</g>
</g>
</svg>
