<svg xmlns="http://www.w3.org/2000/svg" viewBox="0 0 18.132 20.339">
    <g>
        <path fill="#303030" d="M13.694,10.11,9.072,16.126,4.451,10.11H7.386l-.024-.259A7.247,7.247,0,0,0,.2,3.324,1.59,1.59,0,0,0,0,3.332V.008A1.59,1.59,0,0,1,.2,0,10.528,10.528,0,0,1,10.7,9.883l.016.227Z"/>
        <path fill="#303030" d="M16.253,5.791H11.544a11.562,11.562,0,0,1,.522,1.525h4.187a.353.353,0,0,1,.354.354V18.46a.356.356,0,0,1-.354.354H1.9a.353.353,0,0,1-.351-.354V7.67A.35.35,0,0,1,1.9,7.316H4.567A5.506,5.506,0,0,0,2.84,5.791H1.9A1.881,1.881,0,0,0,.023,7.67V18.46A1.88,1.88,0,0,0,1.9,20.339H16.253a1.88,1.88,0,0,0,1.879-1.879V7.67A1.881,1.881,0,0,0,16.253,5.791Z"/>
    </g>
</svg>
