<?xml version="1.0" encoding="utf-8"?>
<!-- Generator: Adobe Illustrator 22.0.0, SVG Export Plug-In . SVG Version: 6.00 Build 0)  -->
<svg version="1.1" id="Layer_1" xmlns="http://www.w3.org/2000/svg" xmlns:xlink="http://www.w3.org/1999/xlink" x="0px" y="0px"
	 width="565.715px" height="200px" viewBox="0 0 565.715 200" enable-background="new 0 0 565.715 200" xml:space="preserve">
<g>
	<g>
		<g>
			<path fill="#FFFFFF" d="M562.925,199.318H337.512c-1.164,0-2.108-0.944-2.108-2.108V49.628c0-1.164,0.944-2.108,2.108-2.108
				h225.413c1.164,0,2.108,0.944,2.108,2.108v147.582C565.033,198.374,564.089,199.318,562.925,199.318z"/>
			<path fill="#A7A9AC" d="M562.925,200H337.512c-1.539,0-2.79-1.252-2.79-2.791V49.628c0-1.538,1.251-2.79,2.79-2.79h225.413
				c1.539,0,2.79,1.252,2.79,2.79v147.581C565.715,198.748,564.464,200,562.925,200z M337.512,48.202
				c-0.786,0-1.426,0.64-1.426,1.426v147.581c0,0.787,0.64,1.427,1.426,1.427h225.413c0.786,0,1.426-0.64,1.426-1.427V49.628
				c0-0.786-0.64-1.426-1.426-1.426H337.512z"/>
		</g>
	</g>
	<g>
		<g>
			<path fill="#FFFFFF" d="M228.203,199.318H2.79c-1.164,0-2.108-0.944-2.108-2.108V49.628c0-1.164,0.944-2.108,2.108-2.108h225.413
				c1.164,0,2.108,0.944,2.108,2.108v147.582C230.311,198.374,229.367,199.318,228.203,199.318z"/>
			<path fill="#A7A9AC" d="M228.203,200H2.79C1.252,200,0,198.748,0,197.209V49.628c0-1.538,1.252-2.79,2.79-2.79h225.413
				c1.538,0,2.79,1.252,2.79,2.79v147.581C230.993,198.748,229.741,200,228.203,200z M2.79,48.202c-0.786,0-1.426,0.64-1.426,1.426
				v147.581c0,0.787,0.64,1.427,1.426,1.427h225.413c0.786,0,1.426-0.64,1.426-1.427V49.628c0-0.786-0.64-1.426-1.426-1.426H2.79z"
				/>
		</g>
	</g>
	<g>
		<g>
			<path fill="#E0E1E2" d="M407.871,188.787H157.844c-1.292,0-2.339-1.047-2.339-2.339V22.752c0-1.292,1.047-2.339,2.339-2.339
				h250.027c1.292,0,2.339,1.047,2.339,2.339v163.697C410.21,187.74,409.163,188.787,407.871,188.787z"/>
		</g>
	</g>
	<rect x="229.629" y="173.254" fill="#8E8E8E" width="1.364" height="15.533"/>
	<rect x="334.722" y="173.254" fill="#8E8E8E" width="1.364" height="15.533"/>
	<g>
		<g>
			<path fill="#FFFFFF" d="M414.72,178.621H150.996c-1.362,0-2.467-1.104-2.467-2.467V3.49c0-1.362,1.104-2.467,2.467-2.467H414.72
				c1.362,0,2.467,1.104,2.467,2.467v172.665C417.186,177.517,416.082,178.621,414.72,178.621z"/>
			<path fill="#A7A9AC" d="M414.719,179.644H150.996c-1.924,0-3.49-1.566-3.49-3.49V3.49c0-1.924,1.565-3.49,3.49-3.49h263.724
				c1.925,0,3.491,1.565,3.491,3.49v172.664C418.21,178.078,416.644,179.644,414.719,179.644z M150.996,2.046
				c-0.796,0-1.444,0.648-1.444,1.444v172.664c0,0.795,0.648,1.443,1.444,1.443h263.724c0.796,0,1.444-0.648,1.444-1.443V3.49
				c0-0.796-0.648-1.444-1.444-1.444H150.996z"/>
		</g>
	</g>
</g>
</svg>
