<?xml version="1.0" encoding="utf-8"?>
<!-- Generator: Adobe Illustrator 21.0.0, SVG Export Plug-In . SVG Version: 6.00 Build 0)  -->
<svg version="1.1" id="Layer_1" xmlns="http://www.w3.org/2000/svg" xmlns:xlink="http://www.w3.org/1999/xlink" x="0px" y="0px"
	 viewBox="0 0 18 18" enable-background="new 0 0 18 18" xml:space="preserve">
<g>
	<path fill="#555555" d="M18,1.02v15.96c0,0.56-0.46,1.02-1.02,1.02h-4.617v-6.971h2.401l0.36-2.7h-2.761V6.074
		c0-0.069,0.023-0.368,0.199-0.552c0.192-0.192,0.568-0.23,0.851-0.23h1.764v-2.7h-1.764c-1.48,0-2.354,0.591-2.822,1.081
		C9.686,4.632,9.656,5.852,9.663,6.151v2.178L7.271,8.321v2.7l2.393,0.008V18H1.02C0.46,18,0,17.54,0,16.98V1.02
		C0,0.46,0.46,0,1.02,0h15.96C17.54,0,18,0.46,18,1.02z"/>
</g>
</svg>
