<?xml version="1.0" encoding="utf-8"?>
<!-- Generator: Adobe Illustrator 21.0.0, SVG Export Plug-In . SVG Version: 6.00 Build 0)  -->
<svg version="1.1" id="Layer_1" xmlns="http://www.w3.org/2000/svg" xmlns:xlink="http://www.w3.org/1999/xlink" x="0px" y="0px"
     viewBox="0 0 20.248 20" enable-background="new 0 0 20.248 20" xml:space="preserve">
<g>
	<g>
		<path fill="#555555" d="M7.41,0C3.317,0,0,3.317,0,7.41s3.317,7.41,7.41,7.41s7.41-3.317,7.41-7.41S11.503,0,7.41,0z M7.41,13.761
			c-3.5,0-6.351-2.848-6.351-6.351S3.91,1.059,7.41,1.059s6.351,2.848,6.351,6.351S10.91,13.761,7.41,13.761z"/>
		<g>
			<path fill="#555555" d="M19.782,19.538C19.472,19.845,19.066,20,18.66,20c-0.406,0-0.815-0.155-1.122-0.462l-5.498-5.466
				c0.875-0.61,1.627-1.39,2.202-2.29l5.541,5.508C20.403,17.911,20.403,18.917,19.782,19.538z"/>
		</g>
	</g>
</g>
</svg>
