<?xml version="1.0" encoding="utf-8"?>
<!-- Generator: Adobe Illustrator 21.0.0, SVG Export Plug-In . SVG Version: 6.00 Build 0)  -->
<svg version="1.1" id="Layer_1" xmlns="http://www.w3.org/2000/svg" xmlns:xlink="http://www.w3.org/1999/xlink" x="0px" y="0px"
	 viewBox="0 0 26.693 20" enable-background="new 0 0 26.693 20" xml:space="preserve">
<g>
	<g>
		<path fill="#555555" d="M26.162,1.157h-2.67v1.95c0,0.537-0.437,0.974-0.974,0.974h-1.417c-0.537,0-0.974-0.437-0.974-0.974v-1.95
			h-4.942v1.95c0,0.537-0.437,0.974-0.974,0.974h-1.417c-0.537,0-0.974-0.437-0.974-0.974v-1.95H6.566v1.95
			c0,0.537-0.437,0.974-0.974,0.974H4.176c-0.537,0-0.974-0.437-0.974-0.974v-1.95h-2.67C0.237,1.157,0,1.394,0,1.688v17.781
			C0,19.761,0.237,20,0.531,20h25.631c0.294,0,0.531-0.239,0.531-0.531V1.688C26.693,1.394,26.456,1.157,26.162,1.157z
			 M7.204,17.875c0,0.195-0.158,0.354-0.354,0.354H2.125c-0.197,0-0.354-0.159-0.354-0.354v-2.954c0-0.195,0.158-0.354,0.354-0.354
			h4.724c0.197,0,0.354,0.159,0.354,0.354V17.875z M7.204,13.505c0,0.197-0.158,0.354-0.354,0.354H2.125
			c-0.197,0-0.354-0.158-0.354-0.354v-2.598c0-0.195,0.158-0.354,0.354-0.354h4.724c0.197,0,0.354,0.159,0.354,0.354V13.505z
			 M7.204,9.49c0,0.197-0.158,0.354-0.354,0.354H2.125c-0.197,0-0.354-0.158-0.354-0.354V6.538c0-0.197,0.158-0.354,0.354-0.354
			h4.724c0.197,0,0.354,0.158,0.354,0.354V9.49z M12.992,17.875c0,0.195-0.159,0.354-0.354,0.354H8.266
			c-0.195,0-0.354-0.159-0.354-0.354v-2.954c0-0.195,0.159-0.354,0.354-0.354h4.372c0.195,0,0.354,0.159,0.354,0.354V17.875z
			 M12.992,13.505c0,0.197-0.159,0.354-0.354,0.354H8.266c-0.195,0-0.354-0.158-0.354-0.354v-2.598c0-0.195,0.159-0.354,0.354-0.354
			h4.372c0.195,0,0.354,0.159,0.354,0.354V13.505z M12.992,9.49c0,0.197-0.159,0.354-0.354,0.354H8.266
			c-0.195,0-0.354-0.158-0.354-0.354V6.538c0-0.197,0.159-0.354,0.354-0.354h4.372c0.195,0,0.354,0.158,0.354,0.354V9.49z
			 M18.781,17.875c0,0.195-0.159,0.354-0.354,0.354h-4.372c-0.195,0-0.354-0.159-0.354-0.354v-2.954
			c0-0.195,0.159-0.354,0.354-0.354h4.372c0.195,0,0.354,0.159,0.354,0.354V17.875z M18.781,9.49c0,0.197-0.159,0.354-0.354,0.354
			h-4.372c-0.195,0-0.354-0.158-0.354-0.354V6.538c0-0.197,0.159-0.354,0.354-0.354h4.372c0.195,0,0.354,0.158,0.354,0.354V9.49z
			 M24.922,17.875c0,0.195-0.158,0.354-0.354,0.354h-4.724c-0.197,0-0.354-0.159-0.354-0.354v-2.954
			c0-0.195,0.158-0.354,0.354-0.354h4.724c0.197,0,0.354,0.159,0.354,0.354V17.875z M24.922,13.505c0,0.197-0.158,0.354-0.354,0.354
			h-4.724c-0.197,0-0.354-0.158-0.354-0.354v-2.598c0-0.195,0.158-0.354,0.354-0.354h4.724c0.197,0,0.354,0.159,0.354,0.354V13.505z
			 M24.922,9.49c0,0.197-0.158,0.354-0.354,0.354h-4.724c-0.197,0-0.354-0.158-0.354-0.354V6.538c0-0.197,0.158-0.354,0.354-0.354
			h4.724c0.197,0,0.354,0.158,0.354,0.354V9.49z"/>
		<path fill="#555555" d="M4.441,3.195h0.886c0.196,0,0.354-0.159,0.354-0.354V0.354C5.681,0.159,5.522,0,5.326,0H4.441
			C4.245,0,4.087,0.159,4.087,0.354v2.487C4.087,3.037,4.245,3.195,4.441,3.195z"/>
		<path fill="#555555" d="M21.367,3.195h0.886c0.196,0,0.354-0.159,0.354-0.354V0.354C22.606,0.159,22.448,0,22.252,0h-0.886
			c-0.196,0-0.354,0.159-0.354,0.354v2.487C21.013,3.037,21.171,3.195,21.367,3.195z"/>
		<path fill="#555555" d="M13.059,3.195h0.885c0.196,0,0.354-0.159,0.354-0.354V0.354C14.299,0.159,14.14,0,13.945,0h-0.885
			c-0.196,0-0.354,0.159-0.354,0.354v2.487C12.705,3.037,12.864,3.195,13.059,3.195z"/>
	</g>
</g>
</svg>
