<?xml version="1.0" encoding="utf-8"?>
<!-- Generator: Adobe Illustrator 21.0.0, SVG Export Plug-In . SVG Version: 6.00 Build 0)  -->
<svg version="1.1" id="Layer_1" xmlns="http://www.w3.org/2000/svg" xmlns:xlink="http://www.w3.org/1999/xlink" x="0px" y="0px"
     viewBox="0 0 17.008 17.008" enable-background="new 0 0 17.008 17.008" xml:space="preserve">
<g>
	<path fill="#555555" d="M17.008,6.32l-0.946-2.285l-1.989,0.205c-0.38-0.496-0.819-0.933-1.305-1.304l0.206-1.99L10.688,0
		L9.426,1.553C8.82,1.472,8.201,1.471,7.582,1.553L6.32,0L4.035,0.946l0.206,1.99c-0.496,0.38-0.933,0.819-1.304,1.305L0.946,4.035
		L0,6.32l1.553,1.262C1.472,8.188,1.47,8.806,1.552,9.426L0,10.688l0.946,2.285l1.99-0.206c0.38,0.496,0.819,0.933,1.305,1.304
		l-0.206,1.99l2.285,0.946l1.262-1.553c0.606,0.081,1.225,0.083,1.845,0l1.262,1.552l2.285-0.946l-0.206-1.99
		c0.496-0.38,0.933-0.819,1.304-1.304l1.991,0.206l0.946-2.285l-1.553-1.262c0.082-0.606,0.083-1.225,0.001-1.845L17.008,6.32z
		 M10.255,12.732c-2.332,0.966-5.013-0.145-5.979-2.476C3.31,7.924,4.421,5.242,6.752,4.276c2.331-0.966,5.014,0.145,5.98,2.477
		C13.698,9.084,12.586,11.766,10.255,12.732z"/>
</g>
</svg>
