<?xml version="1.0" encoding="utf-8"?>
<!-- Generator: Adobe Illustrator 21.0.0, SVG Export Plug-In . SVG Version: 6.00 Build 0)  -->
<svg version="1.1" id="Layer_1" xmlns="http://www.w3.org/2000/svg" xmlns:xlink="http://www.w3.org/1999/xlink" x="0px" y="0px"
     viewBox="0 0 32.256 20" enable-background="new 0 0 32.256 20" xml:space="preserve">
<g>
	<g>
		<path fill="#555555" d="M31.454,20H14.601c-0.49,0-0.866-0.436-0.793-0.921l0.862-5.751c0.214-1.5,1.5-2.615,3.014-2.615l1.557,0
			c0.376,0,0.738,0.107,1.077,0.269c0.822,0.392,1.742,0.617,2.71,0.617c0.968,0,1.888-0.224,2.71-0.617
			c0.339-0.162,0.701-0.269,1.077-0.269l1.542,0c1.514,0,2.8,1.114,3.029,2.615l0.862,5.751C32.32,19.564,31.945,20,31.454,20z"/>
		<path fill="#555555" d="M23.024,0c2.534,0,4.587,2.323,4.587,5.189c0,2.864-2.053,5.188-4.587,5.188
			c-2.533,0-4.585-2.323-4.585-5.188C18.439,2.323,20.491,0,23.024,0"/>
	</g>
	<g>
		<path fill="#555555" d="M4.911,16.509v-5.064H0V8.632h4.911V3.491h2.788v5.141h4.91v2.813h-4.91v5.064H4.911z"/>
	</g>
</g>
</svg>
