<?xml version="1.0" encoding="utf-8"?>
<!-- Generator: Adobe Illustrator 21.0.0, SVG Export Plug-In . SVG Version: 6.00 Build 0)  -->
<svg version="1.1" id="Layer_1" xmlns="http://www.w3.org/2000/svg" xmlns:xlink="http://www.w3.org/1999/xlink" x="0px" y="0px"
     viewBox="0 0 23.77 18" enable-background="new 0 0 23.77 18" xml:space="preserve">
<g>
	<g>
		<g>
			<path fill="#555555" d="M22.621,5.729c-0.615,0-1.163-0.263-1.493-0.669c-0.329,0.406-0.867,0.669-1.493,0.669
				c-0.626,0-1.163-0.263-1.493-0.669c-0.34,0.406-0.878,0.669-1.504,0.669c-0.615,0-1.163-0.263-1.493-0.669
				c-0.329,0.406-0.867,0.669-1.493,0.669c-0.626,0-1.163-0.263-1.493-0.669c-0.34,0.406-0.878,0.669-1.504,0.669
				S9.494,5.466,9.165,5.06C8.835,5.466,8.298,5.729,7.672,5.729c-0.626,0-1.163-0.263-1.493-0.669
				c-0.34,0.406-0.878,0.669-1.504,0.669c-0.198,0-0.395-0.022-0.571-0.077v2.689h2.382V6.695h3.743v7.485h13.072V5.619
				C23.093,5.685,22.862,5.729,22.621,5.729z M21.501,11.579h-9.472V6.695h9.472V11.579z"/>
			<path fill="#555555" d="M23.77,4.143V2.548h-2.292v1.596c0,0.489,0.514,0.888,1.147,0.888C23.257,5.031,23.77,4.633,23.77,4.143z
				"/>
			<path fill="#555555" d="M14.798,4.143V2.548h-2.293v1.596c0,0.489,0.514,0.888,1.147,0.888S14.798,4.633,14.798,4.143z"/>
			<path fill="#555555" d="M17.788,4.143V2.548h-2.292v1.596c0,0.489,0.514,0.888,1.147,0.888
				C17.275,5.031,17.788,4.633,17.788,4.143z"/>
			<path fill="#555555" d="M20.779,4.143V2.548h-2.293v1.596c0,0.489,0.514,0.888,1.147,0.888
				C20.265,5.031,20.779,4.633,20.779,4.143z"/>
			<path fill="#555555" d="M8.816,4.143V2.548H6.522v1.596c0,0.489,0.514,0.888,1.147,0.888S8.816,4.633,8.816,4.143z"/>
			<path fill="#555555" d="M11.806,4.143V2.548H9.514v1.596c0,0.489,0.513,0.888,1.145,0.888S11.806,4.633,11.806,4.143z"/>
			<path fill="#555555" d="M5.824,4.143V2.548H3.64v1.961c0.18,0.307,0.575,0.523,1.038,0.523C5.31,5.031,5.824,4.633,5.824,4.143z"
				/>
			<polygon fill="#555555" points="4.108,0 3.64,0 3.64,2.008 23.77,2.008 23.77,0 23.301,0 			"/>
		</g>
		<g>
			<polygon fill="#555555" points="8.374,9.626 8.374,16.848 5.598,16.848 5.598,14.356 1.965,18 0,16.035 3.644,12.402
				1.163,12.402 1.163,9.626 			"/>
		</g>
	</g>
</g>
</svg>
