<?xml version="1.0" encoding="utf-8"?>
<!-- Generator: Adobe Illustrator 16.0.0, SVG Export Plug-In . SVG Version: 6.00 Build 0)  -->
<!DOCTYPE svg PUBLIC "-//W3C//DTD SVG 1.1//EN" "http://www.w3.org/Graphics/SVG/1.1/DTD/svg11.dtd">
<svg version="1.1" id="Layer_1" xmlns="http://www.w3.org/2000/svg" xmlns:xlink="http://www.w3.org/1999/xlink" x="0px" y="0px"
	 width="142.732px" height="142.732px" viewBox="0 0 142.732 142.732" enable-background="new 0 0 142.732 142.732"
	 xml:space="preserve">
<path fill="#F7F9F9" stroke="#D7DADB" stroke-miterlimit="10" d="M142.232,134.635c0,4.196-1.655,7.6-3.696,7.6H4.196
	c-2.041,0-3.696-3.398-3.696-7.6V8.094C0.5,3.9,2.155,0.5,4.196,0.5h134.34c2.041,0,3.696,3.399,3.696,7.595V134.635z"/>
<g>
	<path d="M9.226,32.826h5.529c3.686,0,6.182,0.143,7.487,0.427c1.305,0.285,2.369,1.011,3.191,2.18
		c0.822,1.169,1.234,3.034,1.234,5.594c0,2.338-0.291,3.909-0.872,4.713c-0.582,0.804-1.726,1.287-3.433,1.447
		c1.546,0.384,2.585,0.897,3.117,1.54c0.532,0.644,0.863,1.234,0.993,1.772s0.195,2.02,0.195,4.444v7.923h-7.255v-9.982
		c0-1.608-0.127-2.604-0.38-2.987c-0.254-0.383-0.918-0.575-1.995-0.575v13.545H9.226V32.826z M17.038,37.966v6.68
		c0.878,0,1.494-0.121,1.846-0.362s0.529-1.023,0.529-2.347v-1.651c0-0.952-0.17-1.577-0.51-1.874
		C18.562,38.114,17.941,37.966,17.038,37.966z"/>
	<path d="M46.447,50.991h-9.704v5.325c0,1.113,0.08,1.831,0.241,2.152c0.161,0.322,0.47,0.482,0.928,0.482
		c0.569,0,0.949-0.213,1.141-0.64c0.191-0.427,0.288-1.252,0.288-2.477v-3.247h7.106v1.818c0,1.521-0.096,2.69-0.288,3.507
		c-0.192,0.816-0.64,1.688-1.345,2.616s-1.599,1.624-2.681,2.087c-1.083,0.464-2.44,0.696-4.073,0.696
		c-1.583,0-2.981-0.229-4.193-0.687c-1.212-0.458-2.156-1.085-2.83-1.883c-0.674-0.798-1.141-1.676-1.401-2.635
		c-0.26-0.958-0.39-2.353-0.39-4.184v-7.181c0-2.152,0.291-3.85,0.872-5.093c0.581-1.243,1.534-2.195,2.857-2.857
		c1.323-0.662,2.845-0.993,4.564-0.993c2.103,0,3.837,0.399,5.205,1.197c1.367,0.798,2.325,1.855,2.876,3.173
		c0.55,1.317,0.826,3.17,0.826,5.557V50.991z M38.932,46.983v-1.8c0-1.274-0.068-2.097-0.204-2.468
		c-0.136-0.371-0.415-0.557-0.835-0.557c-0.52,0-0.841,0.158-0.965,0.473c-0.124,0.315-0.186,1.166-0.186,2.551v1.8H38.932z"/>
	<path d="M56.522,38.244l-0.13,2.176c0.668-0.88,1.404-1.537,2.208-1.971c0.804-0.434,1.682-0.65,2.635-0.65
		c1.163,0,2.167,0.312,3.015,0.937c0.847,0.625,1.376,1.345,1.586,2.162c0.21,0.816,0.315,2.202,0.315,4.156v10.372
		c0,2.239-0.133,3.832-0.399,4.778c-0.266,0.946-0.811,1.701-1.633,2.264c-0.823,0.562-1.815,0.844-2.978,0.844
		c-0.928,0-1.788-0.217-2.579-0.65c-0.792-0.434-1.516-1.078-2.171-1.934v5.646h-7.496V38.244H56.522z M58.656,45.406
		c0-1.521-0.056-2.443-0.167-2.765c-0.111-0.321-0.421-0.482-0.928-0.482c-0.495,0-0.813,0.186-0.956,0.557
		c-0.143,0.371-0.213,1.268-0.213,2.69v10.205c0,1.484,0.074,2.412,0.223,2.783s0.47,0.557,0.965,0.557c0.482,0,0.782-0.17,0.9-0.51
		c0.117-0.34,0.176-1.166,0.176-2.477V45.406z"/>
	<path d="M76.339,32.826v30.04H68.62v-30.04H76.339z"/>
	<path d="M85.727,47.781h-7.032V46.13c0-1.905,0.22-3.374,0.659-4.407c0.438-1.033,1.32-1.945,2.644-2.737
		c1.323-0.792,3.043-1.188,5.158-1.188c2.536,0,4.446,0.449,5.733,1.345c1.286,0.897,2.06,1.998,2.319,3.303
		c0.26,1.305,0.39,3.993,0.39,8.062v12.357h-7.292v-2.194c-0.458,0.88-1.048,1.54-1.772,1.98c-0.723,0.439-1.586,0.66-2.588,0.66
		c-1.312,0-2.514-0.368-3.609-1.104c-1.094-0.736-1.642-2.347-1.642-4.833v-2.022c0-1.843,0.29-3.099,0.872-3.767
		c0.581-0.668,2.022-1.447,4.323-2.338c2.462-0.965,3.778-1.614,3.952-1.948c0.173-0.334,0.26-1.014,0.26-2.041
		c0-1.286-0.096-2.125-0.287-2.514c-0.192-0.39-0.511-0.584-0.956-0.584c-0.507,0-0.823,0.164-0.946,0.492
		c-0.124,0.328-0.186,1.178-0.186,2.551V47.781z M88.102,51.158c-1.2,0.878-1.896,1.614-2.088,2.208s-0.287,1.447-0.287,2.561
		c0,1.274,0.084,2.097,0.25,2.468c0.168,0.371,0.498,0.557,0.993,0.557c0.47,0,0.776-0.145,0.919-0.436
		c0.142-0.291,0.213-1.054,0.213-2.292V51.158z"/>
	<path d="M114.747,47.54h-7.069v-2.839c0-0.989-0.081-1.661-0.241-2.013c-0.161-0.353-0.458-0.529-0.891-0.529
		c-0.434,0-0.724,0.155-0.872,0.464c-0.148,0.31-0.223,1.002-0.223,2.078v11.615c0,0.878,0.111,1.537,0.334,1.976
		c0.223,0.439,0.55,0.659,0.983,0.659c0.507,0,0.85-0.229,1.029-0.687c0.18-0.458,0.27-1.323,0.27-2.598v-2.932h6.68
		c-0.013,1.967-0.083,3.442-0.214,4.425c-0.129,0.983-0.544,1.992-1.242,3.024c-0.699,1.033-1.612,1.812-2.737,2.338
		c-1.126,0.525-2.518,0.789-4.175,0.789c-2.115,0-3.792-0.362-5.028-1.085c-1.237-0.724-2.112-1.738-2.625-3.043
		c-0.514-1.305-0.771-3.157-0.771-5.557v-6.995c0-2.09,0.21-3.667,0.631-4.731c0.421-1.063,1.317-2.013,2.69-2.848
		s3.043-1.252,5.01-1.252c1.954,0,3.624,0.415,5.01,1.243c1.385,0.829,2.307,1.874,2.765,3.136
		C114.517,43.439,114.747,45.227,114.747,47.54z"/>
	<path d="M133.951,50.991h-9.704v5.325c0,1.113,0.08,1.831,0.241,2.152c0.16,0.322,0.47,0.482,0.928,0.482
		c0.568,0,0.949-0.213,1.142-0.64c0.191-0.427,0.287-1.252,0.287-2.477v-3.247h7.106v1.818c0,1.521-0.096,2.69-0.288,3.507
		c-0.191,0.816-0.64,1.688-1.345,2.616s-1.599,1.624-2.681,2.087c-1.083,0.464-2.44,0.696-4.073,0.696
		c-1.584,0-2.981-0.229-4.193-0.687c-1.213-0.458-2.155-1.085-2.829-1.883c-0.675-0.798-1.142-1.676-1.401-2.635
		c-0.26-0.958-0.39-2.353-0.39-4.184v-7.181c0-2.152,0.29-3.85,0.872-5.093c0.581-1.243,1.533-2.195,2.857-2.857
		c1.323-0.662,2.845-0.993,4.564-0.993c2.103,0,3.838,0.399,5.204,1.197c1.367,0.798,2.326,1.855,2.877,3.173
		c0.55,1.317,0.825,3.17,0.825,5.557V50.991z M126.436,46.983v-1.8c0-1.274-0.068-2.097-0.204-2.468
		c-0.137-0.371-0.415-0.557-0.835-0.557c-0.52,0-0.842,0.158-0.965,0.473c-0.124,0.315-0.186,1.166-0.186,2.551v1.8H126.436z"/>
	<path d="M73.694,78.427v30.039h-6.828l-0.009-20.279l-2.718,20.279h-4.843l-2.867-19.816l-0.009,19.816h-6.828V78.427h10.107
		c0.3,1.806,0.609,3.934,0.927,6.386l1.109,7.642l1.795-14.027H73.694z"/>
	<path d="M93.585,96.591h-9.703v5.326c0,1.113,0.08,1.83,0.24,2.152c0.161,0.321,0.471,0.482,0.928,0.482
		c0.569,0,0.949-0.214,1.142-0.641c0.191-0.427,0.288-1.252,0.288-2.477v-3.248h7.105v1.818c0,1.521-0.096,2.691-0.287,3.508
		s-0.641,1.688-1.346,2.615s-1.599,1.624-2.681,2.088c-1.083,0.464-2.44,0.695-4.073,0.695c-1.583,0-2.98-0.229-4.193-0.686
		c-1.212-0.458-2.155-1.086-2.829-1.884c-0.675-0.798-1.142-1.676-1.401-2.635c-0.26-0.958-0.389-2.353-0.389-4.185v-7.18
		c0-2.152,0.29-3.851,0.871-5.094c0.582-1.243,1.534-2.195,2.857-2.857c1.324-0.662,2.846-0.992,4.564-0.992
		c2.104,0,3.838,0.398,5.205,1.196s2.325,1.855,2.876,3.173c0.55,1.317,0.825,3.17,0.825,5.557V96.591z M86.071,92.583v-1.799
		c0-1.274-0.068-2.098-0.205-2.469c-0.136-0.371-0.414-0.557-0.834-0.557c-0.52,0-0.842,0.158-0.965,0.474
		c-0.125,0.315-0.186,1.166-0.186,2.552v1.799H86.071z"/>
</g>
</svg>
