<svg version="1.1" id="Layer_1" xmlns="http://www.w3.org/2000/svg" xmlns:xlink="http://www.w3.org/1999/xlink" x="0px" y="0px"
	 width="14.838px" height="12px" viewBox="0 0 14.838 12" enable-background="new 0 0 14.838 12" xml:space="preserve">
<g>
	<path fill="#555555" d="M14.786,4.085c0-0.003-0.001-0.007-0.001-0.01C14.588,2.867,14.265,0.9,14.265,0.9
		s-0.052-0.656-0.698-0.847C13.457,0.019,13.33,0,13.182,0H7.427C7.423,0,7.42,0,7.42,0S2.669,0,1.658,0
		C0.646,0,0.575,0.9,0.575,0.9S0.24,2.865,0.056,4.075c-0.167,1.089,0.083,1.292,0.224,1.468C0.375,5.652,0.345,5.61,0.841,6.184
		c0.063,0.073,0.122,0.148,0.179,0.224c0.499,0.673,0.736,1.435,0.736,1.435s0.621,1.862,1.006,3.016
		c0.015,0.042,0.029,0.084,0.042,0.125c0.379,1.14,0.917,1.012,1.285,1.012h2.787c0.326,0,0.545,0,0.545,0s2.961,0,3.332,0
		c0.369,0,0.906,0.128,1.285-1.012c0.381-1.138,1.048-3.141,1.048-3.141s0.294-0.942,0.914-1.659
		c0.496-0.574,0.532-0.627,0.552-0.656C14.642,5.413,14.963,5.216,14.786,4.085z M2.714,4.511V3.323h1.614V1.71h1.188v1.614h1.614
		v1.188H5.516v1.614H4.328V4.511H2.714z M14.162,5.034c-0.02,0.058-0.233,0.278-0.233,0.278c-0.073,0.087-0.195,0.231-0.398,0.468
		c-0.347,0.403-0.603,0.862-0.773,1.225c-0.17,0.363-0.256,0.631-0.263,0.654c0,0-0.664,1.993-1.044,3.128
		c-0.198,0.595-0.343,0.595-0.483,0.595c-0.033,0-0.065-0.001-0.097-0.001c-0.041-0.001-0.08-0.003-0.119-0.003H4.088
		c-0.038,0-0.079,0.001-0.119,0.003c-0.032,0-0.064,0.001-0.097,0.001c-0.141,0-0.285-0.001-0.481-0.593
		c-0.044-0.129-0.092-0.27-0.141-0.419l9.753-9.753h0.18c0.398,0,0.459,0.233,0.468,0.331l0.001,0.025L13.656,1
		c0,0,0.321,1.965,0.519,3.175C14.265,4.726,14.193,4.963,14.162,5.034z"/>
	<rect x="7.42" y="7.904" fill="#555555" width="3.653" height="1.186"/>
</g>
</svg>
