<svg version="1.1" id="Layer_1" xmlns="http://www.w3.org/2000/svg" xmlns:xlink="http://www.w3.org/1999/xlink" x="0px" y="0px"
	 width="21.38px" height="12px" viewBox="0 0 21.38 12" enable-background="new 0 0 21.38 12" xml:space="preserve">
<g>
	<path fill="#555555" d="M21.38,8.29c-0.035,0.214-0.136,0.523-0.391,0.789C20.656,9.426,20.162,9.6,19.519,9.6h-2.861
		c-0.089,0.287-0.187,0.55-0.296,0.795C15.923,11.39,15.335,12,14.69,12H3.408c-0.038,0-0.052-0.057-0.014-0.071
		c0.895-0.336,1.633-1.855,1.936-3.881C5.7,8.889,6.364,9.595,7.503,9.6h0.024c0.64,0,1.136-0.174,1.467-0.521
		C9.252,8.814,9.35,8.504,9.388,8.29H21.38z"/>
	<path fill="#555555" d="M17.751,7.769H8.908L8.894,8.041c0,0.005,0.008,0.388-0.271,0.681C8.387,8.965,8.016,9.085,7.506,9.085
		c-0.857-0.008-1.467-0.51-1.814-1.494C5.529,7.132,5.483,6.663,5.475,6.354V6.34C5.477,6.229,5.48,6.115,5.48,6.001
		c0-2.986-0.898-5.462-2.069-5.923C3.37,0.06,3.384,0,3.43,0h11.26c1.356,0,2.46,2.687,2.46,6.001c0,0.005,0.057,0.643,0.328,1.272
		C17.551,7.444,17.643,7.615,17.751,7.769z"/>
	<path fill="#555555" d="M2.46,0C1.101,0,0,2.687,0,6.001C0,9.313,1.101,12,2.46,12c1.356,0,2.46-2.671,2.462-5.972V6.001
		C4.922,2.687,3.821,0,2.46,0z M2.46,8.461c-0.556,0-1.009-1.101-1.009-2.46S1.904,3.539,2.46,3.539
		c0.559,0,1.012,1.104,1.012,2.462S3.018,8.461,2.46,8.461z"/>
</g>
</svg>
