<svg version="1.1" id="Layer_1" xmlns="http://www.w3.org/2000/svg" xmlns:xlink="http://www.w3.org/1999/xlink" x="0px" y="0px"
	 width="11.997px" height="12px" viewBox="0 0 11.997 12" enable-background="new 0 0 11.997 12" xml:space="preserve">
<g>
	<g>
		<path fill="#FFFFFF" d="M5.905,8.699l-3.3,3.3l-2.61-2.61l3.95-3.94c0.04,0.01,0.07,0.02,0.1,0.04c0.03,0.13,0.08,0.27,0.13,0.41
			l-3.49,3.49l1.92,1.92l0.41-0.41l-0.56-0.56l0.34-0.34l0.56,0.56l0.42-0.41l-0.57-0.56l0.35-0.35l0.56,0.57l0.41-0.42l-0.96-0.96
			l0.34-0.34l0.96,0.96l0.41-0.41l-0.56-0.56l0.34-0.35l0.57,0.57L5.905,8.699z"/>
		<path fill="#FFFFFF" d="M11.995,2.609l-3.3,3.3l-0.4-0.29l-0.56-0.56l0.34-0.34l0.56,0.56l0.42-0.41l-0.96-0.96l0.34-0.34
			l0.96,0.96l0.41-0.42l-0.56-0.56l0.34-0.34l0.56,0.56l0.41-0.41l-0.56-0.56l0.34-0.35l0.57,0.57l0.41-0.41l-1.92-1.92l-3.49,3.49
			c-0.14-0.05-0.28-0.1-0.42-0.13c-0.01-0.03-0.03-0.07-0.04-0.1l3.95-3.95L11.995,2.609z"/>
	</g>
	<path fill="#FFFFFF" d="M11.335,9.769c0,0,0.31-1.22-0.98-2.12l-3.54-2.48c0,0-0.9-0.63-1.65-0.72c-0.15-0.34-0.25-0.64-0.32-0.86
		c-0.09-0.32,0.1-0.4,0.15-0.42c0.01,0,0.02,0,0.02,0c0.12-0.03,0.25-0.09,0.36-0.16c0.53-0.38,0.62-1.17,0.2-1.77
		c-0.42-0.6-1.19-0.79-1.73-0.41c-0.53,0.37-0.62,1.16-0.2,1.76c0.11,0.16,0.25,0.29,0.4,0.39c0.35,0.25,0.41,0.76,0.41,1.25v0.23
		c-0.54,0.01-1.19-0.01-1.48-0.41c-0.1-0.15-0.23-0.29-0.39-0.4c-0.6-0.42-1.39-0.33-1.76,0.2c-0.37,0.53-0.19,1.31,0.41,1.73
		c0.6,0.42,1.4,0.33,1.77-0.2c0.08-0.11,0.13-0.24,0.16-0.36c0-0.01,0-0.01,0-0.02c0.02-0.05,0.1-0.24,0.42-0.16
		c0.23,0.07,0.52,0.18,0.86,0.32c0.09,0.76,0.72,1.66,0.72,1.66l2.48,3.54c0.9,1.28,2.13,0.98,2.13,0.98l-3.64-5.2v-0.01
		L11.335,9.769z M2.705,5.169c-0.27,0.39-0.84,0.45-1.28,0.15c-0.44-0.31-0.58-0.87-0.3-1.26c0.27-0.39,0.84-0.45,1.28-0.15
		C2.845,4.219,2.975,4.779,2.705,5.169z M3.915,2.409c-0.31-0.44-0.25-1.02,0.14-1.29s0.95-0.13,1.26,0.3
		c0.31,0.44,0.24,1.02-0.15,1.29C4.775,2.979,4.215,2.839,3.915,2.409z"/>
</g>
</svg>
