<svg version="1.1" id="Layer_1" xmlns="http://www.w3.org/2000/svg" xmlns:xlink="http://www.w3.org/1999/xlink" x="0px" y="0px"
	 width="12px" height="12px" viewBox="0 0 12 12" enable-background="new 0 0 12 12" xml:space="preserve">
<g>
	<polygon fill="#FFFFFF" points="3.027,10.907 2.613,11.32 3.013,10.907 	"/>
	<polygon fill="#FFFFFF" points="5.067,7.747 4.72,8.08 5.053,7.733 	"/>
	<polygon fill="#FFFFFF" points="6.04,7.893 5.467,7.32 5.48,7.32 	"/>
	<polygon fill="#FFFFFF" points="7.547,6.373 7.547,6.387 6.973,5.813 6.987,5.813 	"/>
	<polygon fill="#FFFFFF" points="9.587,3.213 9.253,3.56 9.24,3.547 	"/>
	<path fill="#FFFFFF" d="M9.24,3.547L9.253,3.56l0.333-0.347L9.24,3.547z M6.973,5.813l0.573,0.573V6.373l-0.56-0.56H6.973z
		 M5.467,7.32L6.04,7.893L5.48,7.32H5.467z M4.72,8.08l0.347-0.333L5.053,7.733L4.72,8.08z M2.613,11.32l0.413-0.413H3.013
		L2.613,11.32z"/>
	<path fill="#FFFFFF" d="M9.4,0L0,9.4L2.613,12L12,2.613L9.4,0z M10.56,3.36l-0.413,0.413l-0.56-0.56L9.253,3.56l0.56,0.56
		L9.4,4.533l-0.96-0.96L8.093,3.907l0.96,0.96L8.64,5.28L8.08,4.72L7.733,5.067l0.56,0.56L7.88,6.04L7.32,5.48L6.987,5.813
		l0.56,0.56v0.013l-0.413,0.4l-0.96-0.96L5.827,6.173l0.96,0.96L6.373,7.547l-0.56-0.56L5.48,7.32l0.56,0.573L5.627,8.307
		l-0.56-0.56L4.72,8.08l0.56,0.56L4.867,9.053l-0.96-0.96L3.573,8.44l0.96,0.96L4.12,9.813L3.547,9.24L3.213,9.587l0.56,0.56
		L3.36,10.56L2.8,10l-0.347,0.347l0.56,0.56h0.013L2.613,11.32L0.693,9.4L9.4,0.693l1.92,1.92l-0.413,0.4l-0.56-0.56L10,2.8
		L10.56,3.36z"/>
</g>
</svg>
