<?xml version="1.0" encoding="utf-8"?>
<!-- Generator: Adobe Illustrator 20.1.0, SVG Export Plug-In . SVG Version: 6.00 Build 0)  -->
<svg version="1.1" id="Layer_1" xmlns="http://www.w3.org/2000/svg" xmlns:xlink="http://www.w3.org/1999/xlink" x="0px" y="0px"
	 viewBox="0 0 141.732 84.18" enable-background="new 0 0 141.732 84.18" xml:space="preserve">
<g>
	<g>
		<path fill="#555555" d="M141.503,37.497c0-0.03,0-0.03,0-0.06c-0.905-5.461-2.354-14.362-2.354-14.362s-0.332-4.073-4.918-4.073
			h-26.039c-0.03,0-0.03,0-0.03,0s-0.574,0-1.552,0c0.098,0.592,0.193,1.168,0.282,1.706l0.036,0.221v0.082
			c0.726,4.98-0.392,7.02-1.594,8.351c-0.212,0.303-0.697,0.886-2.623,3.126c-2.389,2.749-3.59,6.488-3.602,6.526
			c-0.013,0.042-3.034,9.135-4.786,14.299c-1.45,4.381-3.803,6.429-7.4,6.429h-2.638c0.329,0.983,0.682,2.037,1.036,3.1
			c0.664,2.082,1.388,4.194,1.931,5.883c1.418,4.194,3.289,4.586,4.828,4.586h32.133c1.569,0,3.44-0.392,4.828-4.586
			c1.75-5.159,4.767-14.241,4.767-14.241s1.327-4.254,4.133-7.483c2.233-2.595,2.414-2.836,2.505-2.987
			C140.839,43.501,142.288,42.596,141.503,37.497z"/>
		<path fill="#555555" d="M47.39,53.309c-0.254-0.79-0.53-1.624-0.822-2.501c-0.365-1.101-0.753-2.269-1.123-3.427
			c-1.404-4.214-2.791-8.31-2.792-8.312c-0.031-0.098-0.979-3.099-2.899-5.702l-0.597-0.746l-0.124-0.135
			c-1.272-1.48-1.773-2.048-2.048-2.361c-0.092-0.105-0.16-0.182-0.224-0.256h-3.142c-0.03,0-0.03,0-0.03,0s-5.763,0-11.979,0H7.52
			c-4.586,0-4.918,4.073-4.918,4.073s-1.509,8.901-2.354,14.362c-0.754,4.948,0.392,5.854,1.026,6.638
			c0.422,0.513,0.302,0.331,2.534,2.927c0.03,0.03,0.06,0.06,0.091,0.091c0.242,0.301,0.483,0.603,0.724,0.905
			c2.263,3.047,3.319,6.487,3.319,6.487s1.388,4.103,2.806,8.358c0.664,2.082,1.388,4.194,1.931,5.883
			c1.418,4.194,3.289,4.586,4.828,4.586H49.64c1.569,0,3.44-0.392,4.828-4.586c1.75-5.159,4.767-14.241,4.767-14.241
			s0.881-2.821,2.723-5.612h-7.167C51.225,59.741,48.874,57.697,47.39,53.309z"/>
		<path fill="#555555" d="M91.752,52.439c1.75-5.159,4.767-14.241,4.767-14.241s1.327-4.254,4.133-7.483
			c2.233-2.595,2.414-2.836,2.505-2.987c0.392-0.513,1.84-1.418,1.056-6.517c0-0.03,0-0.03,0-0.06
			c-0.905-5.461-2.354-14.362-2.354-14.362s-0.332-4.073-4.918-4.073H70.903c-0.03,0-0.03,0-0.03,0s-5.763,0-11.979,0H44.803
			c-4.586,0-4.918,4.073-4.918,4.073s-1.509,8.901-2.354,14.362c-0.754,4.948,0.392,5.854,1.026,6.638
			c0.422,0.513,0.302,0.331,2.534,2.927c0.03,0.03,0.06,0.06,0.091,0.091c0.242,0.301,0.482,0.603,0.724,0.905
			c2.263,3.047,3.319,6.487,3.319,6.487s1.388,4.103,2.806,8.358c0.664,2.082,1.388,4.194,1.931,5.883
			c1.418,4.194,3.289,4.586,4.828,4.586h32.133C88.493,57.026,90.364,56.633,91.752,52.439z"/>
	</g>
	<path fill="#FFFFFF" d="M67.906,46.2l-5.584,2.234c-0.432,0.173-0.926-0.039-1.099-0.471l-6.336-15.837
		c-0.173-0.432,0.039-0.926,0.471-1.099l5.584-2.234c0.432-0.173,0.926,0.039,1.099,0.471l6.336,15.837
		C68.549,45.533,68.337,46.027,67.906,46.2z"/>
	<path fill="#FFFFFF" d="M85.069,35.889l-13.627,5.454c-1.042,0.407-2.246-0.098-2.653-1.14l-4.444-11.087
		c-0.277-0.7-0.309-1.482-0.098-2.198l2.198-7.424c0,0,0.065-0.195,0.146-0.537c0.277-0.977,0.7-3.207-0.081-5.128
		c-1.009-2.54,2.93-4.591,4.998,0.57c0,0,0.879,3.012,0.228,4.379c-0.261,0.586-0.895,3.028,1.4,2.116l7.554-3.012
		c1.189-0.488,2.556,0.098,3.028,1.286c0.488,1.205-0.098,2.54-1.286,3.044c1.091-0.114,2.198,0.586,2.475,1.758
		c0.277,1.172-0.488,2.344-1.595,2.8c0.977-0.081,1.954,0.488,2.344,1.449c0.472,1.205-0.114,2.556-1.302,3.044l-0.358,0.147
		c0.098-0.016,0.212-0.033,0.342-0.016c0.863,0.065,1.677,0.602,2.019,1.449C86.827,34.033,86.257,35.417,85.069,35.889z"/>
</g>
</svg>
