<svg version="1.1" id="Layer_1" xmlns="http://www.w3.org/2000/svg" xmlns:xlink="http://www.w3.org/1999/xlink" x="0px" y="0px"
	 width="19.365px" height="12px" viewBox="0 0 19.365 12" enable-background="new 0 0 19.365 12" xml:space="preserve">
<g>
	<g>
		<g>
			<g>
				<circle fill="#555555" cx="6.765" cy="5.56" r="1.919"/>
				<path fill="#555555" d="M14.785,4.085c0-0.003-0.001-0.007-0.001-0.01c-0.197-1.208-0.52-3.175-0.52-3.175S14.193,0,13.181,0
					H7.426C7.422,0,7.419,0,7.419,0S6.143,0,4.773,0H1.657C0.645,0,0.574,0.9,0.574,0.9S0.241,2.865,0.055,4.075
					c-0.167,1.089,0.083,1.292,0.224,1.468C0.374,5.652,0.344,5.61,0.84,6.184c0.006,0.007,0.012,0.015,0.017,0.022
					c0.057,0.065,0.11,0.134,0.161,0.202c0.499,0.673,0.736,1.435,0.736,1.435S2.056,8.749,2.37,9.689
					c0.151,0.458,0.307,0.923,0.432,1.295C3.112,11.914,3.527,12,3.869,12h7.1c0.343,0,0.757-0.086,1.067-1.016
					c0.381-1.138,1.048-3.141,1.048-3.141s0.294-0.942,0.914-1.659c0.496-0.574,0.532-0.627,0.552-0.656
					C14.641,5.413,14.962,5.216,14.785,4.085z M14.161,5.034c-0.02,0.058-0.233,0.278-0.233,0.278
					c-0.073,0.087-0.195,0.231-0.398,0.468c-0.125,0.144-0.237,0.295-0.339,0.448c-0.257-0.128-0.548-0.201-0.855-0.201
					c-1.06,0-1.919,0.859-1.919,1.919c0,0.868,0.576,1.602,1.368,1.837v0.001c-0.094,0.279-0.186,0.554-0.267,0.8
					c-0.025,0.07-0.047,0.138-0.068,0.204c-0.198,0.595-0.343,0.595-0.483,0.595H8.912c-0.053-1.013-0.89-1.815-1.915-1.815
					s-1.862,0.802-1.914,1.814H3.869c-0.14,0-0.283-0.001-0.481-0.593c-0.022-0.065-0.045-0.134-0.068-0.205
					c-0.137-0.407-0.298-0.89-0.448-1.345V9.238C3.128,8.912,3.28,8.502,3.28,8.056c0-0.98-0.736-1.789-1.685-1.904
					C1.508,6.025,1.412,5.9,1.308,5.78C1.103,5.543,0.982,5.399,0.909,5.312c-0.212-0.25-0.233-0.278-0.233-0.278
					c-0.03-0.071-0.102-0.308-0.012-0.859C0.68,4.076,0.697,3.971,0.715,3.862c0.129,0.028,0.263,0.042,0.4,0.042
					c1.06,0,1.919-0.859,1.919-1.919c0-0.535-0.22-1.02-0.574-1.368h2.617c0.349,0.474,0.91,0.781,1.544,0.781
					s1.195-0.307,1.544-0.781h2.404c-0.275,0.331-0.44,0.757-0.44,1.223c0,1.06,0.859,1.919,1.919,1.919
					c0.866,0,1.599-0.574,1.837-1.362c0.096,0.587,0.205,1.253,0.289,1.778C14.263,4.726,14.192,4.963,14.161,5.034z"/>
			</g>
		</g>
	</g>
	<path fill="#555555" d="M19.079,5.528c-0.02,0.029-0.057,0.081-0.552,0.656c-0.621,0.717-0.914,1.659-0.914,1.659
		s-0.667,2.003-1.048,3.141C16.254,11.914,15.84,12,15.497,12h-2.918c-0.012,0-0.02,0-0.028-0.001
		c-0.065-0.003-0.009-0.025,0.015-0.032c0.006-0.001,0.009-0.003,0.009-0.003c0.266-0.077,0.544-0.308,0.768-0.98
		c0.381-1.138,1.048-3.141,1.048-3.141s0.294-0.942,0.914-1.659c0.496-0.574,0.532-0.627,0.552-0.656
		c0.09-0.115,0.411-0.313,0.234-1.443c0-0.003-0.001-0.007-0.001-0.01C15.894,2.867,15.571,0.9,15.571,0.9s-0.051-0.65-0.689-0.845
		c0,0-0.001,0-0.003-0.001C14.854,0.047,14.719,0,14.882,0h2.827c1.012,0,1.083,0.9,1.083,0.9s0.323,1.967,0.519,3.175
		c0,0.003,0.001,0.007,0.001,0.01C19.49,5.216,19.169,5.413,19.079,5.528z"/>
</g>
</svg>
